<?xml version="1.0" encoding="UTF-8"?>
<svg width="64mm" height="64mm" version="1.1" viewBox="0 0 63.999716 64.000226" xmlns="http://www.w3.org/2000/svg" xmlns:cc="http://creativecommons.org/ns#" xmlns:dc="http://purl.org/dc/elements/1.1/" xmlns:rdf="http://www.w3.org/1999/02/22-rdf-syntax-ns#" xmlns:xlink="http://www.w3.org/1999/xlink">
<metadata>
<rdf:RDF>
<cc:Work rdf:about="">
<dc:format>image/svg+xml</dc:format>
<dc:type rdf:resource="http://purl.org/dc/dcmitype/StillImage"/>
<dc:title/>
</cc:Work>
</rdf:RDF>
</metadata>
<g transform="translate(-245.94 -9.1316)">
<g transform="translate(-98.432 -314.87)" fill="#0085c8">
<path d="m376.37 324-32 32 32 32 32-32zm-0.092 11.242 0.79892 0.46715c10.019 5.8536 16.214 16.559 16.297 28.162l6e-3 0.92552-0.80099 0.46096c-4.9614 2.8509-10.581 4.3568-16.303 4.3713h-6e-3c-5.7198-9e-3 -11.34-1.5098-16.303-4.3537l-0.80253-0.45889 6e-3 -0.92553c0.0783-11.612 6.2799-22.327 16.309-28.182zm0 3.7424c-8.3039 5.2166-13.483 14.168-13.867 23.967 4.272 2.2665 9.0175 3.5014 13.863 3.5094 4.8462-0.0132 9.592-1.2534 13.862-3.5254-0.38769-9.7914-5.5621-18.735-13.858-23.951z" fill="#0085c8"/>
</g>
</g>
</svg>
